<?xml version="1.0" encoding="utf-8"?>
<!-- Generator: Adobe Illustrator 25.2.1, SVG Export Plug-In . SVG Version: 6.00 Build 0)  -->
<svg version="1.1" id="Layer_1" xmlns="http://www.w3.org/2000/svg" xmlns:xlink="http://www.w3.org/1999/xlink" x="0px" y="0px"
	 viewBox="0 0 367.06 108.42" style="enable-background:new 0 0 367.06 108.42;" xml:space="preserve">
<style type="text/css">
	.st0{fill:#231F20;}
	.st1{fill:none;stroke:#000000;stroke-width:0.5;stroke-miterlimit:10;}
	.st2{fill:none;stroke:#231F20;stroke-width:0.5;stroke-miterlimit:10;}
</style>
<g>
	<path class="st0" d="M13.48,59.94c-1.58-1.08-3.03-2.71-4.33-4.9c-1.43-2.36-2.63-5.41-3.6-9.17c-0.97-3.76-1.45-7.93-1.45-12.52
		c0-2.23,0.13-4.42,0.4-6.55c0.27-2.13,0.63-4.13,1.08-6c0.45-1.87,0.99-3.59,1.61-5.18s1.29-2.96,2.02-4.14
		c1.3-2.19,2.74-3.84,4.33-4.94s3.45-1.69,5.6-1.77v2.07c-1.42,0.08-2.63,0.52-3.62,1.31c-1,0.79-1.92,1.96-2.77,3.5
		c-1.3,2.36-2.41,5.39-3.32,9.11c-0.91,3.72-1.37,7.91-1.37,12.58c0,4.06,0.35,7.82,1.07,11.27c0.71,3.45,1.55,6.26,2.53,8.41
		c0.97,2.15,2.04,3.77,3.2,4.84c1.16,1.08,2.59,1.65,4.3,1.74v2.07C16.95,61.59,15.06,61.01,13.48,59.94z"/>
</g>
<g>
	<path class="st0" d="M81.04,53.08l-6.03-11.45H43.94l-6.15,11.45h-4.57L56.55,8.97h5.85l23.21,44.11H81.04z M59.78,12.81h-0.55
		L45.95,37.79H73L59.78,12.81z"/>
</g>
<g>
	<path class="st0" d="M105.29,6.54c1.58,1.1,3.03,2.74,4.33,4.94c1.43,2.4,2.64,5.5,3.63,9.32c0.99,3.82,1.49,8,1.49,12.55
		c0,4.55-0.5,8.71-1.49,12.49c-0.99,3.78-2.2,6.84-3.63,9.2c-1.3,2.19-2.73,3.83-4.3,4.9c-1.56,1.08-3.44,1.65-5.64,1.74V59.6
		c1.71-0.12,3.13-0.71,4.26-1.77c1.14-1.06,2.19-2.66,3.17-4.81c0.97-2.19,1.83-5.01,2.56-8.44c0.73-3.43,1.1-7.18,1.1-11.24
		c0-4.67-0.46-8.87-1.37-12.61c-0.91-3.74-2.02-6.76-3.32-9.08c-0.85-1.54-1.78-2.7-2.77-3.47c-1-0.77-2.2-1.22-3.62-1.34V4.77
		C101.84,4.85,103.71,5.44,105.29,6.54z"/>
</g>
<g>
	<path class="st0" d="M193.02,53.08V12.81h-0.24l-24.43,31.44l-24.49-31.44h-0.18v40.27h-3.96V8.97h6.15l22.48,29.43l22.54-29.43
		h6.09v44.11H193.02z"/>
</g>
<g>
	<path class="st0" d="M275.15,53.08l-6.03-11.45h-31.07l-6.15,11.45h-4.57l23.33-44.11h5.85l23.21,44.11H275.15z M253.89,12.81
		h-0.55l-13.28,24.98h27.05L253.89,12.81z"/>
</g>
<g>
	<path class="st0" d="M351.85,53.08l-13.83-18.09h-24.07v18.09H310V8.97h33.27c2.03,0,3.87,0.3,5.51,0.91
		c1.65,0.61,3.05,1.49,4.2,2.65c1.16,1.16,2.04,2.55,2.65,4.17c0.61,1.62,0.91,3.43,0.91,5.42c0,3.82-1.14,6.83-3.41,9.05
		c-2.28,2.21-5.57,3.48-9.87,3.81l13.4,18.09H351.85z M349.75,28.74c1.6-1.6,2.41-3.87,2.41-6.79c0-6.09-3.55-9.14-10.66-9.14
		h-27.54v18.34h29C345.88,31.15,348.15,30.35,349.75,28.74z"/>
</g>
<g>
	<path class="st0" d="M19.07,96.51l-1.16-2.24h-6.72l-1.16,2.24H8.22l5.28-9.99h2.08l5.28,9.99H19.07z M14.55,87.94L12,92.77h5.09
		L14.55,87.94z"/>
</g>
<g>
	<path class="st0" d="M34.6,89.34c-0.52-0.55-1.13-0.96-1.83-1.23c-0.69-0.27-1.5-0.4-2.42-0.4c-0.7,0-1.34,0.09-1.91,0.28
		c-0.57,0.19-1.07,0.45-1.48,0.79c-0.41,0.34-0.73,0.74-0.95,1.2c-0.23,0.46-0.34,0.96-0.34,1.51c0,0.56,0.11,1.08,0.33,1.54
		s0.54,0.87,0.95,1.2c0.41,0.33,0.92,0.59,1.5,0.78c0.59,0.18,1.25,0.28,1.99,0.28c0.89,0,1.68-0.13,2.35-0.39
		c0.68-0.26,1.28-0.68,1.81-1.26l1.42,0.79c-0.69,0.82-1.48,1.41-2.37,1.79c-0.89,0.38-1.94,0.57-3.13,0.57h-0.07l-0.22,0.36
		c0.36,0.04,0.63,0.15,0.82,0.33s0.28,0.42,0.28,0.72c0,0.33-0.13,0.61-0.4,0.83c-0.27,0.22-0.63,0.33-1.1,0.33
		c-0.44,0-0.88-0.09-1.32-0.26l0.26-0.5c0.28,0.11,0.52,0.17,0.72,0.17c0.21,0,0.38-0.06,0.51-0.17s0.19-0.23,0.19-0.36
		c0-0.1-0.03-0.18-0.1-0.24c-0.06-0.06-0.15-0.09-0.25-0.09c-0.14,0-0.26,0.08-0.37,0.23l-0.43-0.19c0.07-0.13,0.16-0.29,0.27-0.49
		c0.11-0.2,0.23-0.43,0.37-0.7c-0.92-0.1-1.74-0.3-2.45-0.59s-1.31-0.67-1.8-1.12c-0.49-0.46-0.86-0.98-1.11-1.58
		c-0.25-0.6-0.38-1.26-0.38-1.97c0-1.61,0.68-2.93,2.03-3.95c0.55-0.42,1.2-0.75,1.95-0.99c0.75-0.23,1.56-0.35,2.42-0.35
		c1.24,0,2.35,0.22,3.32,0.66c0.97,0.44,1.78,1.08,2.44,1.94L34.6,89.34z"/>
</g>
<g>
	<path class="st0" d="M53.03,91.5c0,1.64-0.67,2.96-2.01,3.97c-0.55,0.41-1.2,0.74-1.95,0.97c-0.75,0.23-1.56,0.35-2.44,0.35
		c-0.87,0-1.69-0.12-2.45-0.36c-0.76-0.24-1.41-0.57-1.97-0.98c-1.34-1.01-2.01-2.33-2.01-3.96c0-1.6,0.68-2.92,2.04-3.95
		c0.56-0.42,1.22-0.75,1.97-0.99c0.75-0.24,1.56-0.36,2.42-0.36c0.86,0,1.66,0.12,2.41,0.36c0.75,0.24,1.41,0.57,1.96,0.99
		C52.36,88.59,53.03,89.9,53.03,91.5z M51.31,91.5c0-1.16-0.5-2.11-1.49-2.85c-0.4-0.3-0.88-0.53-1.42-0.69
		c-0.54-0.17-1.13-0.25-1.77-0.25c-0.7,0-1.34,0.09-1.91,0.28c-0.57,0.19-1.07,0.45-1.48,0.79c-0.41,0.34-0.74,0.74-0.97,1.2
		c-0.23,0.47-0.35,0.97-0.35,1.52c0,0.56,0.11,1.08,0.33,1.54c0.22,0.47,0.54,0.87,0.94,1.2c0.41,0.33,0.9,0.59,1.48,0.78
		c0.58,0.18,1.23,0.28,1.95,0.28s1.36-0.09,1.94-0.28c0.57-0.18,1.06-0.44,1.47-0.78c0.4-0.33,0.72-0.73,0.94-1.2
		S51.31,92.06,51.31,91.5z"/>
</g>
<g>
	<path class="st0" d="M67.41,96.51l-2.7-3.81h-5.05v3.81H58v-9.99h7.88c1.06,0,1.88,0.28,2.48,0.84s0.89,1.33,0.89,2.3
		c0,0.44-0.06,0.83-0.19,1.17c-0.13,0.34-0.31,0.63-0.54,0.88c-0.23,0.24-0.51,0.44-0.83,0.59s-0.66,0.25-1.03,0.32l2.68,3.89H67.41
		z M67.06,90.8c0.33-0.26,0.49-0.64,0.49-1.14c0-1.09-0.69-1.64-2.07-1.64h-5.82v3.17h5.97C66.26,91.2,66.73,91.07,67.06,90.8z"/>
</g>
<g>
	<path class="st0" d="M74.18,96.51v-9.99h10.07v1.5h-8.42v2.55h5.85v1.5h-5.85v2.92h8.8v1.5H74.18z"/>
</g>
<g>
	<path class="st0" d="M96.21,88.01c-0.74-0.18-1.51-0.28-2.3-0.28c-1.04,0-1.83,0.12-2.36,0.37c-0.53,0.24-0.8,0.57-0.8,0.99
		c0,0.44,0.29,0.76,0.87,0.97c0.28,0.1,0.58,0.17,0.92,0.21c0.34,0.04,0.7,0.07,1.1,0.1c0.4,0.02,0.83,0.05,1.29,0.08
		c0.46,0.03,0.94,0.07,1.45,0.14c1.25,0.16,2.17,0.46,2.77,0.91c0.6,0.45,0.9,1.09,0.9,1.93c0,1.06-0.46,1.88-1.39,2.46
		s-2.28,0.87-4.06,0.87c-1.28,0-2.41-0.14-3.39-0.41c-0.98-0.27-1.83-0.7-2.56-1.28l0.91-1.2c0.81,0.5,1.62,0.86,2.44,1.09
		s1.69,0.34,2.61,0.34c1.2,0,2.1-0.16,2.72-0.48c0.62-0.32,0.92-0.75,0.92-1.29c0-0.36-0.1-0.63-0.31-0.83
		c-0.21-0.19-0.51-0.34-0.9-0.44s-0.88-0.17-1.46-0.21c-0.58-0.04-1.23-0.08-1.97-0.13c-0.77-0.06-1.45-0.13-2.02-0.23
		c-0.58-0.1-1.06-0.24-1.44-0.43c-0.39-0.19-0.68-0.45-0.87-0.76C89.1,90.18,89,89.79,89,89.31c0-0.94,0.43-1.68,1.3-2.22
		c0.86-0.54,2.11-0.81,3.74-0.81c2.15,0,3.96,0.49,5.41,1.48l-1.01,1.12C97.7,88.48,96.95,88.19,96.21,88.01z"/>
</g>
<g>
	<path class="st0" d="M143.25,86.74c0.41,0.15,0.76,0.36,1.05,0.63c0.28,0.27,0.51,0.6,0.66,0.99c0.16,0.39,0.23,0.81,0.23,1.28
		c0,0.99-0.31,1.75-0.92,2.28c-0.62,0.52-1.52,0.79-2.72,0.79h-5.95v3.81h-1.66v-9.99h7.92C142.38,86.52,142.84,86.59,143.25,86.74z
		 M143.02,90.8c0.32-0.26,0.48-0.64,0.48-1.14c0-1.09-0.68-1.64-2.03-1.64h-5.86v3.17h5.97C142.22,91.2,142.7,91.07,143.02,90.8z"/>
</g>
<g>
	<path class="st0" d="M149.48,96.51v-9.99h10.07v1.5h-8.42v2.55h5.85v1.5h-5.85v2.92h8.8v1.5H149.48z"/>
</g>
<g>
	<path class="st0" d="M164.47,96.51v-9.99h1.66v8.49h7.71v1.5H164.47z"/>
</g>
<g>
	<path class="st0" d="M188.2,96.51l-1.16-2.24h-6.72l-1.16,2.24h-1.81l5.28-9.99h2.08l5.28,9.99H188.2z M183.69,87.94l-2.55,4.83
		h5.09L183.69,87.94z"/>
</g>
<g>
	<path d="M217.34,86.89c0.7,0.24,1.29,0.59,1.78,1.03c0.49,0.44,0.86,0.98,1.12,1.61c0.26,0.63,0.39,1.33,0.39,2.1
		c0,0.71-0.14,1.36-0.41,1.96c-0.27,0.6-0.67,1.13-1.21,1.6c-0.49,0.43-1.05,0.76-1.68,0.99c-0.63,0.23-1.32,0.34-2.04,0.34h-6.64
		v-9.99h6.32C215.86,86.52,216.65,86.64,217.34,86.89z M216.81,94.75c0.42-0.17,0.78-0.41,1.08-0.71c0.3-0.3,0.53-0.66,0.7-1.08
		c0.17-0.42,0.25-0.88,0.25-1.37c0-0.53-0.09-1.02-0.27-1.46c-0.18-0.44-0.43-0.81-0.76-1.12c-0.33-0.31-0.72-0.55-1.17-0.72
		c-0.46-0.17-0.96-0.26-1.52-0.26h-4.8v6.98h5.12C215.94,95.01,216.39,94.92,216.81,94.75z"/>
</g>
<g>
	<path d="M225.58,96.51v-9.99h1.66v9.99H225.58z"/>
	<path d="M238.66,96.51h-1.9l-5.38-9.99h1.85l4.48,8.33l4.48-8.33h1.85L238.66,96.51z"/>
</g>
<g>
	<path d="M248.21,96.51v-9.99h10.07v1.5h-8.42v2.55h5.85v1.5h-5.85v2.92h8.8v1.5H248.21z"/>
</g>
<g>
	<path d="M272.62,96.51l-2.7-3.81h-5.05v3.81h-1.66v-9.99h7.88c1.06,0,1.88,0.28,2.48,0.84s0.89,1.33,0.89,2.3
		c0,0.44-0.06,0.83-0.19,1.17c-0.13,0.34-0.31,0.63-0.54,0.88c-0.23,0.24-0.51,0.44-0.83,0.59s-0.66,0.25-1.03,0.32l2.68,3.89
		H272.62z M272.26,90.8c0.33-0.26,0.49-0.64,0.49-1.14c0-1.09-0.69-1.64-2.07-1.64h-5.82v3.17h5.97
		C271.46,91.2,271.94,91.07,272.26,90.8z"/>
</g>
<g>
	<path d="M285.98,88.01c-0.74-0.18-1.51-0.28-2.3-0.28c-1.04,0-1.83,0.12-2.36,0.37c-0.53,0.24-0.8,0.57-0.8,0.99
		c0,0.44,0.29,0.76,0.87,0.97c0.28,0.1,0.58,0.17,0.92,0.21c0.34,0.04,0.7,0.07,1.1,0.1c0.4,0.02,0.83,0.05,1.29,0.08
		c0.46,0.03,0.94,0.07,1.45,0.14c1.25,0.16,2.17,0.46,2.77,0.91c0.6,0.45,0.9,1.09,0.9,1.93c0,1.06-0.46,1.88-1.39,2.46
		s-2.28,0.87-4.06,0.87c-1.28,0-2.41-0.14-3.39-0.41c-0.98-0.27-1.83-0.7-2.56-1.28l0.91-1.2c0.81,0.5,1.62,0.86,2.44,1.09
		s1.69,0.34,2.61,0.34c1.2,0,2.1-0.16,2.72-0.48c0.62-0.32,0.92-0.75,0.92-1.29c0-0.36-0.1-0.63-0.31-0.83
		c-0.21-0.19-0.51-0.34-0.9-0.44s-0.88-0.17-1.46-0.21c-0.58-0.04-1.23-0.08-1.97-0.13c-0.77-0.06-1.45-0.13-2.02-0.23
		c-0.58-0.1-1.06-0.24-1.44-0.43c-0.39-0.19-0.68-0.45-0.87-0.76c-0.19-0.31-0.29-0.71-0.29-1.19c0-0.94,0.43-1.68,1.3-2.22
		c0.86-0.54,2.11-0.81,3.74-0.81c2.15,0,3.96,0.49,5.41,1.48l-1.01,1.12C287.46,88.48,286.72,88.19,285.98,88.01z"/>
</g>
<g>
	<path d="M294.65,96.51v-9.99h1.66v9.99H294.65z"/>
</g>
<g>
	<path d="M310.52,86.89c0.7,0.24,1.29,0.59,1.78,1.03c0.49,0.44,0.86,0.98,1.12,1.61c0.26,0.63,0.39,1.33,0.39,2.1
		c0,0.71-0.14,1.36-0.41,1.96c-0.27,0.6-0.67,1.13-1.21,1.6c-0.49,0.43-1.05,0.76-1.68,0.99c-0.63,0.23-1.32,0.34-2.04,0.34h-6.64
		v-9.99h6.32C309.03,86.52,309.82,86.64,310.52,86.89z M309.99,94.75c0.42-0.17,0.78-0.41,1.08-0.71c0.3-0.3,0.53-0.66,0.7-1.08
		c0.17-0.42,0.25-0.88,0.25-1.37c0-0.53-0.09-1.02-0.27-1.46c-0.18-0.44-0.43-0.81-0.76-1.12c-0.33-0.31-0.72-0.55-1.17-0.72
		c-0.46-0.17-0.96-0.26-1.52-0.26h-4.8v6.98h5.12C309.11,95.01,309.57,94.92,309.99,94.75z"/>
</g>
<g>
	<path d="M327.69,96.51l-1.16-2.24h-6.72l-1.16,2.24h-1.81l5.28-9.99h2.08l5.28,9.99H327.69z M323.18,87.94l-2.55,4.83h5.09
		L323.18,87.94z"/>
</g>
<g>
	<path d="M342.4,86.89c0.7,0.24,1.29,0.59,1.78,1.03c0.49,0.44,0.86,0.98,1.12,1.61c0.26,0.63,0.39,1.33,0.39,2.1
		c0,0.71-0.14,1.36-0.41,1.96c-0.27,0.6-0.67,1.13-1.21,1.6c-0.49,0.43-1.05,0.76-1.68,0.99c-0.63,0.23-1.32,0.34-2.04,0.34h-6.64
		v-9.99h6.32C340.92,86.52,341.7,86.64,342.4,86.89z M341.87,94.75c0.42-0.17,0.78-0.41,1.08-0.71c0.3-0.3,0.53-0.66,0.7-1.08
		c0.17-0.42,0.25-0.88,0.25-1.37c0-0.53-0.09-1.02-0.27-1.46c-0.18-0.44-0.43-0.81-0.76-1.12c-0.33-0.31-0.72-0.55-1.17-0.72
		c-0.46-0.17-0.96-0.26-1.52-0.26h-4.8v6.98h5.12C341,95.01,341.45,94.92,341.87,94.75z"/>
</g>
<g>
	<path d="M350.65,96.51v-9.99h10.07v1.5h-8.42v2.55h5.85v1.5h-5.85v2.92h8.8v1.5H350.65z"/>
</g>
</svg>
